<!DOCTYPE svg PUBLIC "-//W3C//DTD SVG 1.1//EN" "http://www.w3.org/Graphics/SVG/1.1/DTD/svg11.dtd">
<!-- Uploaded to: SVG Repo, www.svgrepo.com, Transformed by: SVG Repo Mixer Tools -->
<svg version="1.1" id="Layer_1" xmlns="http://www.w3.org/2000/svg" xmlns:xlink="http://www.w3.org/1999/xlink" viewBox="0 0 512 512" xml:space="preserve" width="800px" height="800px" fill="#000000">
<g id="SVGRepo_bgCarrier" stroke-width="0"/>
<g id="SVGRepo_tracerCarrier" stroke-linecap="round" stroke-linejoin="round"/>
<g id="SVGRepo_iconCarrier"> <rect x="89.6" y="64" style="fill:#ffffff;" width="204.8" height="153.6"/> <path style="fill:#000000;" d="M38.4,499.2V12.8h307.2v486.4H38.4z M102.4,64c-7.057,0-12.8,5.743-12.8,12.8v128 c0,7.057,5.743,12.8,12.8,12.8h179.2c7.057,0,12.8-5.743,12.8-12.8v-128c0-7.057-5.743-12.8-12.8-12.8H102.4z"/> <g> <path style="fill:#000000;" d="M102.4,230.4h179.2c14.14,0,25.6-11.46,25.6-25.6v-128c0-14.14-11.46-25.6-25.6-25.6H102.4 c-14.14,0-25.6,11.46-25.6,25.6v128C76.8,218.94,88.26,230.4,102.4,230.4z M102.4,76.8h179.2v128H102.4V76.8z"/> <path style="fill:#000000;" d="M402.423,39.697c-6.272-3.021-14.003-0.503-17.126,5.871c-3.098,6.323-0.478,14.003,5.871,17.126 c12.297,6.033,27.785,15.505,41.088,26.121c-0.256-0.051-0.657-0.145-0.887-0.196c-7.074-1.476-13.679,3.123-15.053,10.052 c-1.374,6.946,3.123,13.679,10.052,15.053c14.942,2.978,31.479,9.83,34.398,14.157c0.009,0.043,0.034,0.077,0.034,0.119v217.6 c0,14.123-11.477,25.6-25.6,25.6c-14.123,0-25.6-11.477-25.6-25.6V166.4c0-28.228-22.972-51.2-51.2-51.2V25.6 c0-14.14-11.46-25.6-25.6-25.6H51.2C37.06,0,25.6,11.46,25.6,25.6v460.8c0,14.14,11.46,25.6,25.6,25.6h281.6 c14.14,0,25.6-11.46,25.6-25.6V140.8c14.123,0,25.6,11.477,25.6,25.6v179.2c0,28.228,22.972,51.2,51.2,51.2 c28.228,0,51.2-22.972,51.2-51.2V128C486.4,82.15,411.025,43.904,402.423,39.697z M332.8,486.4H51.2V25.6h281.6V486.4z"/> </g> </g>
</svg>