<?xml version="1.0" encoding="iso-8859-1"?>
<!-- Uploaded to: SVG Repo, www.svgrepo.com, Generator: SVG Repo Mixer Tools -->
<svg fill="#000000" height="800px" width="800px" version="1.1" id="Layer_1" xmlns="http://www.w3.org/2000/svg" xmlns:xlink="http://www.w3.org/1999/xlink" 
	 viewBox="0 0 512 512" xml:space="preserve">
<g>
	<g>
		<path d="M471.12,16.696v34.031h-11.686c-30.724,0-55.72,24.996-55.72,55.72c0,30.724,24.996,55.72,55.72,55.72h11.686v201.899
			c0,14.277-11.616,25.893-25.893,25.893c-14.277,0-25.893-11.616-25.893-25.893V255.556c0-32.689-26.595-59.284-59.284-59.284
			h-25.893V0H7.49v512h326.666V229.663h25.893c14.277,0,25.893,11.616,25.893,25.893v108.511c0,32.689,26.595,59.284,59.284,59.284
			s59.284-26.595,59.284-59.284V16.696H471.12z M267.375,229.663H74.273V66.783h193.102V229.663z"/>
	</g>
</g>
</svg>