<?xml version="1.0" encoding="utf-8"?>

<!DOCTYPE svg PUBLIC "-//W3C//DTD SVG 1.1//EN" "http://www.w3.org/Graphics/SVG/1.1/DTD/svg11.dtd">
<!-- Uploaded to: SVG Repo, www.svgrepo.com, Generator: SVG Repo Mixer Tools -->
<svg height="800px" width="800px" version="1.1" id="_x32_" xmlns="http://www.w3.org/2000/svg" xmlns:xlink="http://www.w3.org/1999/xlink" 
	 viewBox="0 0 512 512"  xml:space="preserve">
<style type="text/css">
	.st0{fill:#000000;}
</style>
<g>
	<path class="st0" d="M491.008,96.427c-10.787-33.322-25.975-63.367-43.82-88.09L441.165,0l-9.148,4.672
		c-1.071,0.568-34.645,16.99-84.074,16.954c-25.534-0.009-55.308-4.321-87.432-17.377L256,2.413l-4.51,1.836
		c-32.124,13.056-61.899,17.368-87.424,17.377c-25.534,0-46.8-4.349-61.575-8.653c-7.391-2.152-13.154-4.294-16.998-5.87
		c-1.927-0.784-3.368-1.432-4.304-1.855c-0.459-0.216-0.801-0.369-1-0.477l-0.207-0.1L70.834,0L64.82,8.337
		c-17.854,24.715-33.043,54.768-43.829,88.09c-10.778,33.33-17.16,69.957-17.16,107.763c0,23.138,2.394,46.718,7.644,70.226
		c11.452,51.392,33.385,99.462,71.901,140.139c38.49,40.705,93.212,73.73,169.194,96.418L256,512l3.43-1.027
		c75.98-22.688,130.704-55.713,169.194-96.418c38.526-40.677,60.449-88.746,71.901-140.139c5.249-23.508,7.644-47.088,7.644-70.226
		C508.16,166.384,501.794,129.758,491.008,96.427z M391.052,70.155h27.731v7.977h-19.51v10.759h16.611v7.977h-16.611v11.146h19.51
		V116h-27.731V70.155z M355.335,70.155h30.216v7.977h-10.994V116h-8.22V78.132h-11.002V70.155z M332.628,70.155h6.447L354.452,116
		h-8.58l-2.476-8.121h-14.964L325.894,116h-8.581L332.628,70.155z M286.216,70.155h30.215v7.977h-11.002V116h-8.22V78.132h-10.994
		V70.155z M273.439,98.867c-0.432-0.423-0.9-0.747-1.413-0.964c-0.514-0.216-1.306-0.405-2.368-0.576l-5.025-0.846
		c-1.89-0.297-3.493-0.756-4.79-1.378c-1.305-0.621-2.422-1.431-3.376-2.413c-2.008-2.106-3.016-5.114-3.016-9.012
		c0-2.071,0.342-3.944,1.008-5.637c0.676-1.701,1.639-3.16,2.9-4.384c1.26-1.225,2.8-2.179,4.61-2.864
		c1.819-0.684,3.862-1.035,6.15-1.035c2.917,0,5.465,0.414,7.625,1.224c2.17,0.82,4.16,2.197,5.979,4.124l-5.205,5.6
		c-1.305-1.368-2.719-2.242-4.258-2.602c-1.54-0.37-2.998-0.55-4.376-0.55c-2.206,0-3.835,0.567-4.88,1.711
		c-1.044,1.134-1.566,2.494-1.566,4.087c0,0.594,0.09,1.179,0.27,1.728c0.17,0.559,0.476,1.081,0.909,1.549
		c0.441,0.432,0.964,0.792,1.576,1.098c0.603,0.297,1.368,0.514,2.278,0.64l5.024,0.837c1.927,0.306,3.529,0.738,4.79,1.296
		c1.26,0.559,2.341,1.324,3.251,2.314c1.143,1.116,1.971,2.494,2.485,4.123c0.514,1.63,0.765,3.476,0.765,5.537
		c0,2.233-0.396,4.205-1.179,5.924c-0.793,1.711-1.882,3.17-3.287,4.34c-1.395,1.188-3.052,2.089-4.961,2.71
		c-1.918,0.621-3.979,0.936-6.185,0.936c-3.187,0-6.041-0.441-8.544-1.323c-2.503-0.882-4.781-2.458-6.825-4.736l5.322-5.798
		c1.332,1.468,2.872,2.475,4.61,3.025c1.738,0.559,3.565,0.846,5.501,0.846c2.485,0,4.349-0.495,5.618-1.485
		c1.261-0.99,1.891-2.404,1.891-4.25C274.745,101.082,274.313,99.813,273.439,98.867z M218.095,70.155h16.503
		c2.125,0,4.033,0.369,5.726,1.125c1.702,0.748,3.134,1.756,4.322,3.026c1.179,1.269,2.08,2.746,2.692,4.438
		c0.603,1.702,0.918,3.512,0.918,5.439c0,1.638-0.207,3.097-0.621,4.384c-0.414,1.288-0.981,2.44-1.693,3.449
		c-0.702,1.008-1.521,1.863-2.449,2.575c-0.927,0.702-1.909,1.251-2.926,1.638L249.967,116h-9.526l-8.211-18.294h-5.915V116h-8.22
		V70.155z M183.504,70.155h27.731v7.977h-19.511v10.759h16.612v7.977h-16.612v11.146h19.511V116h-27.731V70.155z M147.787,70.155
		h30.216v7.977H167.01V116h-8.22V78.132h-11.002V70.155z M110.062,70.155h7.338l16.674,28.072V70.155h8.22V116h-7.338
		l-16.674-28.144V116h-8.22V70.155z M93.208,70.155h8.22V116h-8.22V70.155z M238.299,279.522
		c-3.259,8.553-7.113,17.376-11.57,26.478l-42.1,85.875H145.32l41.254-81.967c-2.414,0.927-4.872,1.584-7.383,1.954
		c-2.512,0.369-4.97,0.558-7.383,0.558c-6.699,0-13.2-1.351-19.52-4.051c-6.32-2.684-11.893-6.546-16.729-11.56
		c-4.835-5.024-8.733-11.156-11.713-18.403c-2.971-7.248-4.457-15.522-4.457-24.813c0-9.67,1.576-18.35,4.745-26.075
		c3.151-7.707,7.527-14.207,13.1-19.51c5.573-5.303,12.128-9.337,19.654-12.128s15.658-4.177,24.39-4.177
		c8.734,0,16.872,1.351,24.399,4.042c7.527,2.692,14.082,6.644,19.655,11.849c5.572,5.204,9.94,11.615,13.1,19.231
		c3.16,7.626,4.744,16.36,4.744,26.209C243.179,262.145,241.549,270.968,238.299,279.522z M392.609,334.443
		c0,9.48-1.63,17.89-4.88,25.227c-3.25,7.347-7.617,13.523-13.1,18.539c-5.483,5.024-11.893,8.832-19.24,11.434
		c-7.347,2.602-15.009,3.898-22.995,3.898c-8.184,0-15.901-1.296-23.139-3.898c-7.247-2.602-13.667-6.41-19.24-11.434
		c-5.573-5.016-9.994-11.192-13.244-18.539c-3.251-7.338-4.88-15.747-4.88-25.227V250.8c0-9.48,1.629-17.88,4.88-25.227
		c3.25-7.347,7.671-13.523,13.244-18.538c5.573-5.025,11.993-8.834,19.24-11.435c7.238-2.602,14.955-3.898,23.139-3.898
		c7.986,0,15.648,1.296,22.995,3.898c7.347,2.602,13.757,6.41,19.24,11.435c5.483,5.014,9.85,11.19,13.1,18.538
		c3.25,7.347,4.88,15.747,4.88,25.227V334.443z M29.797,162.827c0.756-5.843,1.66-11.668,2.741-17.485h446.928
		c1.076,5.817,1.977,11.642,2.737,17.485H29.797z"/>
	<polygon class="st0" points="336.058,83.678 330.738,100.353 341.208,100.353 	"/>
	<path class="st0" d="M181.28,224.312c-7.437,0-13.568,2.512-18.394,7.527c-4.835,5.024-7.248,12.182-7.248,21.473
		c0,8.923,2.314,15.99,6.968,21.185c4.646,5.204,10.868,7.806,18.674,7.806c7.437,0,13.568-2.503,18.403-7.527
		c4.835-5.014,7.248-12.163,7.248-21.464c0-9.291-2.414-16.45-7.248-21.473C194.848,226.824,188.717,224.312,181.28,224.312z"/>
	<path class="st0" d="M238.407,88.567c1.08-1.117,1.63-2.575,1.63-4.384c0-1.802-0.55-3.26-1.63-4.376
		c-1.08-1.116-2.53-1.674-4.349-1.674h-7.742v12.11h7.742C235.877,90.242,237.326,89.683,238.407,88.567z"/>
	<path class="st0" d="M332.394,224.312c-7.248,0-13.109,2.422-17.566,7.257c-4.466,4.835-6.69,11.425-6.69,19.79v82.804
		c0,8.364,2.224,14.919,6.69,19.655c4.457,4.735,10.318,7.112,17.566,7.112c7.248,0,13.055-2.377,17.422-7.112
		c4.366-4.736,6.554-11.291,6.554-19.655v-82.804c0-8.365-2.188-14.955-6.554-19.79C345.45,226.734,339.642,224.312,332.394,224.312
		z"/>
</g>
</svg>