<?xml version="1.0" encoding="iso-8859-1"?>
<!-- Uploaded to: SVG Repo, www.svgrepo.com, Generator: SVG Repo Mixer Tools -->
<svg fill="#000000" height="800px" width="800px" version="1.1" id="Layer_1" xmlns="http://www.w3.org/2000/svg" xmlns:xlink="http://www.w3.org/1999/xlink" 
	 viewBox="0 0 512.101 512.101" xml:space="preserve">
<g transform="translate(0 -1)">
	<g>
		<g>
			<path d="M435.967,171.375c-8.815-10.351-26.428-10.351-35.226,0l-20.983,24.619c-12.877,15.087-16.247,36.053-8.823,54.716
				c6.801,17.067,21.214,28.535,38.793,31.249v34.876c0,4.719,3.814,8.533,8.533,8.533s8.533-3.814,8.533-8.533v-34.833
				c16.521-2.731,30.626-13.542,37.82-29.474c8.661-19.157,5.666-40.9-7.842-56.73L435.967,171.375z"/>
			<path d="M111.701,171.375c-8.815-10.351-26.428-10.351-35.226,0l-20.983,24.619c-12.877,15.087-16.247,36.053-8.823,54.716
				c6.801,17.067,21.214,28.535,38.793,31.249v34.876c0,4.719,3.814,8.533,8.533,8.533s8.533-3.814,8.533-8.533v-34.833
				c16.521-2.731,30.626-13.542,37.82-29.474c8.661-19.157,5.666-40.9-7.842-56.73L111.701,171.375z"/>
			<path d="M435.967,359.108c-8.815-10.351-26.428-10.351-35.226,0l-20.983,24.619c-12.877,15.087-16.247,36.053-8.823,54.716
				c6.801,17.067,21.214,28.535,38.793,31.249v34.876c0,4.719,3.814,8.533,8.533,8.533s8.533-3.814,8.533-8.533v-34.833
				c16.521-2.731,30.626-13.542,37.82-29.474c8.661-19.157,5.666-40.9-7.842-56.73L435.967,359.108z"/>
			<path d="M111.701,359.108c-8.815-10.351-26.428-10.351-35.226,0l-20.983,24.619c-12.877,15.087-16.247,36.053-8.823,54.716
				c6.801,17.067,21.214,28.535,38.793,31.249v34.876c0,4.719,3.814,8.533,8.533,8.533s8.533-3.814,8.533-8.533v-34.833
				c16.521-2.731,30.626-13.542,37.82-29.474c8.661-19.157,5.666-40.9-7.842-56.73L111.701,359.108z"/>
			<path d="M503.517,1H8.584C3.865,1,0.05,4.814,0.05,9.533V129c0,4.719,3.814,8.533,8.533,8.533h179.2v366.933
				c0,4.719,3.814,8.533,8.533,8.533h51.2v-25.6c0-4.719,3.814-8.533,8.533-8.533s8.533,3.814,8.533,8.533V513h51.2
				c4.719,0,8.533-3.814,8.533-8.533V137.533h179.2c4.719,0,8.533-3.814,8.533-8.533V9.533C512.05,4.814,508.236,1,503.517,1z
				 M68.317,77.8H51.25c-4.719,0-8.533-3.814-8.533-8.533s3.814-8.533,8.533-8.533h17.067c4.719,0,8.533,3.814,8.533,8.533
				S73.036,77.8,68.317,77.8z M149.938,77.8H117.29c-4.71,0-8.533-3.814-8.533-8.533s3.823-8.533,8.533-8.533h32.648
				c4.719,0,8.533,3.814,8.533,8.533S154.657,77.8,149.938,77.8z M231.568,77.8H198.92c-4.719,0-8.533-3.814-8.533-8.533
				s3.814-8.533,8.533-8.533h32.649c4.719,0,8.533,3.814,8.533,8.533S236.287,77.8,231.568,77.8z M264.584,430.508
				c0,4.719-3.814,8.533-8.533,8.533s-8.533-3.814-8.533-8.533v-37.922c0-4.719,3.814-8.533,8.533-8.533s8.533,3.814,8.533,8.533
				V430.508z M264.584,335.694c0,4.71-3.814,8.533-8.533,8.533s-8.533-3.823-8.533-8.533v-37.931c0-4.71,3.814-8.533,8.533-8.533
				s8.533,3.823,8.533,8.533V335.694z M264.584,240.872c0,4.719-3.814,8.533-8.533,8.533s-8.533-3.814-8.533-8.533V202.95
				c0-4.719,3.814-8.533,8.533-8.533s8.533,3.814,8.533,8.533V240.872z M264.584,146.067c0,4.719-3.814,8.533-8.533,8.533
				s-8.533-3.814-8.533-8.533V129c0-4.719,3.814-8.533,8.533-8.533s8.533,3.814,8.533,8.533V146.067z M313.181,77.8h-32.64
				c-4.719,0-8.533-3.814-8.533-8.533s3.814-8.533,8.533-8.533h32.64c4.719,0,8.533,3.814,8.533,8.533S317.9,77.8,313.181,77.8z
				 M394.811,77.8h-32.648c-4.719,0-8.533-3.814-8.533-8.533s3.814-8.533,8.533-8.533h32.648c4.71,0,8.533,3.814,8.533,8.533
				S399.521,77.8,394.811,77.8z M460.85,77.8h-17.067c-4.719,0-8.533-3.814-8.533-8.533s3.814-8.533,8.533-8.533h17.067
				c4.719,0,8.533,3.814,8.533,8.533S465.569,77.8,460.85,77.8z"/>
		</g>
	</g>
</g>
</svg>