<?xml version="1.0" encoding="iso-8859-1"?>
<!-- Uploaded to: SVG Repo, www.svgrepo.com, Generator: SVG Repo Mixer Tools -->
<svg fill="#000000" height="800px" width="800px" version="1.1" id="Layer_1" xmlns="http://www.w3.org/2000/svg" xmlns:xlink="http://www.w3.org/1999/xlink" 
	 viewBox="0 0 512 512" xml:space="preserve">
<g>
	<g>
		<path d="M503.467,153.6H358.4V8.533c0-4.719-3.823-8.533-8.533-8.533H162.133c-4.71,0-8.533,3.814-8.533,8.533V153.6H8.533
			c-4.71,0-8.533,3.814-8.533,8.533v187.733c0,4.719,3.823,8.533,8.533,8.533H153.6v145.067c0,4.719,3.823,8.533,8.533,8.533
			h187.733c4.71,0,8.533-3.814,8.533-8.533V358.4h145.067c4.71,0,8.533-3.814,8.533-8.533V162.133
			C512,157.414,508.177,153.6,503.467,153.6z M59.733,264.533H42.667c-4.71,0-8.533-3.814-8.533-8.533
			c0-4.719,3.823-8.533,8.533-8.533h17.067c4.71,0,8.533,3.814,8.533,8.533C68.267,260.719,64.444,264.533,59.733,264.533z
			 M128,264.533h-25.6c-4.71,0-8.533-3.814-8.533-8.533c0-4.719,3.823-8.533,8.533-8.533H128c4.71,0,8.533,3.814,8.533,8.533
			C136.533,260.719,132.71,264.533,128,264.533z M196.267,264.533h-25.6c-4.71,0-8.533-3.814-8.533-8.533
			c0-4.719,3.823-8.533,8.533-8.533h25.6c4.71,0,8.533,3.814,8.533,8.533C204.8,260.719,200.977,264.533,196.267,264.533z
			 M264.533,469.333c0,4.719-3.823,8.533-8.533,8.533s-8.533-3.814-8.533-8.533v-17.067c0-4.719,3.823-8.533,8.533-8.533
			s8.533,3.814,8.533,8.533V469.333z M264.533,409.6c0,4.719-3.823,8.533-8.533,8.533s-8.533-3.814-8.533-8.533V384
			c0-4.719,3.823-8.533,8.533-8.533s8.533,3.814,8.533,8.533V409.6z M264.533,341.333c0,4.719-3.823,8.533-8.533,8.533
			s-8.533-3.814-8.533-8.533v-25.6c0-4.719,3.823-8.533,8.533-8.533s8.533,3.814,8.533,8.533V341.333z M264.533,273.067
			c0,4.719-3.823,8.533-8.533,8.533s-8.533-3.814-8.533-8.533v-25.6c0-4.719,3.823-8.533,8.533-8.533s8.533,3.814,8.533,8.533
			V273.067z M264.533,204.8c0,4.719-3.823,8.533-8.533,8.533s-8.533-3.814-8.533-8.533v-25.6c0-4.719,3.823-8.533,8.533-8.533
			s8.533,3.814,8.533,8.533V204.8z M264.533,136.533c0,4.719-3.823,8.533-8.533,8.533s-8.533-3.814-8.533-8.533v-25.6
			c0-4.719,3.823-8.533,8.533-8.533s8.533,3.814,8.533,8.533V136.533z M264.533,68.267c0,4.719-3.823,8.533-8.533,8.533
			s-8.533-3.814-8.533-8.533v-25.6c0-4.719,3.823-8.533,8.533-8.533s8.533,3.814,8.533,8.533V68.267z M332.8,264.533h-25.6
			c-4.71,0-8.533-3.814-8.533-8.533c0-4.719,3.823-8.533,8.533-8.533h25.6c4.71,0,8.533,3.814,8.533,8.533
			C341.333,260.719,337.51,264.533,332.8,264.533z M401.067,264.533h-25.6c-4.71,0-8.533-3.814-8.533-8.533
			c0-4.719,3.823-8.533,8.533-8.533h25.6c4.71,0,8.533,3.814,8.533,8.533C409.6,260.719,405.777,264.533,401.067,264.533z
			 M469.333,264.533h-25.6c-4.71,0-8.533-3.814-8.533-8.533c0-4.719,3.823-8.533,8.533-8.533h25.6c4.71,0,8.533,3.814,8.533,8.533
			C477.867,260.719,474.044,264.533,469.333,264.533z"/>
	</g>
</g>
</svg>