<!DOCTYPE svg PUBLIC "-//W3C//DTD SVG 1.1//EN" "http://www.w3.org/Graphics/SVG/1.1/DTD/svg11.dtd">
<!-- Uploaded to: SVG Repo, www.svgrepo.com, Transformed by: SVG Repo Mixer Tools -->
<svg width="800px" height="800px" viewBox="0 0 32 32" xmlns="http://www.w3.org/2000/svg" fill="#000000">
<g id="SVGRepo_bgCarrier" stroke-width="0"/>
<g id="SVGRepo_tracerCarrier" stroke-linecap="round" stroke-linejoin="round"/>
<g id="SVGRepo_iconCarrier"> <title/> <g id="Crossroad"> <polygon points="24.203 7.797 24.203 2.35 21.603 2.35 21.603 10.397 29.65 10.397 29.65 7.797 24.203 7.797" style="fill:#000000"/> <polygon points="2.35 24.203 7.797 24.203 7.797 29.65 10.397 29.65 10.397 21.603 2.35 21.603 2.35 24.203" style="fill:#000000"/> <polygon points="10.397 2.35 7.797 2.35 7.797 7.797 2.35 7.797 2.35 10.397 10.397 10.397 10.397 2.35" style="fill:#000000"/> <polygon points="21.603 29.65 24.203 29.65 24.203 24.203 29.65 24.203 29.65 21.603 21.603 21.603 21.603 29.65" style="fill:#000000"/> <path d="M28.35,11.697H20.303V3.65H11.697v8.047H3.65v8.606h8.047V28.35h8.606V20.303H28.35ZM13.01,17.586H5.99V14.414h7.02Zm4.576,8.424H14.414V18.99h3.172Zm0-13H14.414V5.99h3.172Zm8.424,4.576H18.99V14.414h7.02Z" style="fill:#000000"/> <rect height="0.572" style="fill:#000000" width="4.42" x="20.29" y="15.714"/> <rect height="0.572" style="fill:#000000" width="4.42" x="7.29" y="15.714"/> <rect height="4.42" style="fill:#000000" width="0.572" x="15.714" y="7.29"/> <rect height="4.42" style="fill:#000000" width="0.572" x="15.714" y="20.29"/> </g> </g>
</svg>